<?xml version="1.0" encoding="UTF-8" standalone="no"?><!DOCTYPE svg PUBLIC "-//W3C//DTD SVG 1.1//EN" "http://www.w3.org/Graphics/SVG/1.1/DTD/svg11.dtd"><svg width="100%" height="100%" viewBox="0 0 62 40" version="1.1" xmlns="http://www.w3.org/2000/svg" xmlns:xlink="http://www.w3.org/1999/xlink" xml:space="preserve" xmlns:serif="http://www.serif.com/" style="fill-rule:evenodd;clip-rule:evenodd;stroke-linejoin:round;stroke-miterlimit:1.41421;"><g id="Layer-1" serif:id="Layer 1"><path d="M7.845,15.099c0.085,0.032 0.122,0.059 0.159,0.058c3.52,-0.035 7.054,0.113 10.553,-0.169c2.69,-0.218 4.271,-1.447 4.017,-4.322c-0.013,-0.141 0,-0.283 -0.003,-0.425c-0.036,-1.383 -0.702,-2.362 -1.983,-2.837c-0.692,-0.257 -1.447,-0.456 -2.179,-0.475c-3.416,-0.091 -6.835,-0.111 -10.252,-0.153c-0.097,-0.001 -0.194,0.026 -0.312,0.043l0,8.28Zm-0.016,16.655c3.88,-0.075 7.678,-0.129 11.475,-0.243c0.603,-0.018 1.266,-0.195 1.784,-0.498c2.022,-1.182 2.984,-4.518 1.992,-6.656c-0.803,-1.734 -2.256,-2.536 -4.069,-2.59c-3.516,-0.105 -7.035,-0.086 -10.552,-0.149c-0.545,-0.01 -0.677,0.156 -0.674,0.683c0.025,2.911 0.012,5.823 0.013,8.735c0.001,0.198 0.017,0.396 0.031,0.718m-7.829,6.664l0,-38.361c0.106,-0.019 0.219,-0.058 0.331,-0.057c6.595,0.036 13.191,0.05 19.786,0.133c1.917,0.024 3.758,0.53 5.468,1.432c3.006,1.585 4.497,4.15 4.735,7.475c0.14,1.979 -0.021,3.922 -1.064,5.694c-0.61,1.037 -1.477,1.81 -2.459,2.474c-0.278,0.188 -0.558,0.373 -0.9,0.601c0.213,0.134 0.339,0.229 0.477,0.297c3.697,1.795 5.255,4.844 5.204,8.845c-0.051,4.137 -1.78,7.37 -5.256,9.613c-1.919,1.239 -4.105,1.736 -6.354,1.765c-6.574,0.084 -13.15,0.093 -19.726,0.13c-0.057,0.001 -0.116,-0.019 -0.242,-0.041" style="fill-rule:nonzero;"/><path d="M41.545,21.287l12.611,0c-0.192,-2.118 -0.957,-3.898 -2.843,-4.899c-2.294,-1.217 -4.709,-1.38 -6.992,0.04c-1.739,1.082 -2.506,2.812 -2.776,4.859m20.303,5.085c-0.766,0 -1.51,-0.004 -2.253,0c-5.645,0.037 -11.289,0.061 -16.933,0.119c-1.671,0.017 -1.517,-0.065 -1.157,1.515c1.091,4.772 6.545,7.01 10.516,4.293c0.693,-0.474 1.168,-1.262 1.77,-1.879c0.176,-0.178 0.445,-0.37 0.674,-0.373c2.226,-0.028 4.451,-0.017 6.677,-0.014c0.116,0 0.232,0.028 0.521,0.066c-0.299,0.843 -0.471,1.69 -0.876,2.406c-2.494,4.412 -6.297,6.703 -11.376,6.824c-2.124,0.051 -4.249,0.081 -6.3,-0.639c-5.926,-2.078 -8.758,-5.9 -9.228,-11.862c-0.231,-2.92 -0.117,-5.833 0.815,-8.644c1.317,-3.966 3.968,-6.72 7.917,-8.027c4.144,-1.372 8.338,-1.257 12.288,0.681c3.71,1.821 5.786,5.005 6.598,9.015c0.191,0.947 0.286,1.922 0.333,2.889c0.056,1.169 0.014,2.342 0.014,3.63" style="fill-rule:nonzero;"/><rect x="39.071" y="2.298" width="16.56" height="3.831"/></g></svg>