<?xml version="1.0" encoding="UTF-8" standalone="no"?><!DOCTYPE svg PUBLIC "-//W3C//DTD SVG 1.1//EN" "http://www.w3.org/Graphics/SVG/1.1/DTD/svg11.dtd"><svg width="100%" height="100%" viewBox="0 0 64 45" version="1.1" xmlns="http://www.w3.org/2000/svg" xmlns:xlink="http://www.w3.org/1999/xlink" xml:space="preserve" xmlns:serif="http://www.serif.com/" style="fill-rule:evenodd;clip-rule:evenodd;stroke-linejoin:round;stroke-miterlimit:1.41421;"><path d="M43.567,22.252c5.715,5.715 11.462,11.461 17.102,17.102l0,-34.204c-5.744,5.744 -11.487,11.486 -17.102,17.102m-41.066,-17.079l0,34.319l17.159,-17.159c-5.69,-5.689 -11.431,-11.431 -17.159,-17.16m1.434,36.782c0.48,0.06 0.935,0.165 1.391,0.166c17.486,0.008 34.973,0.007 52.46,0.006c0.206,0 0.417,0.012 0.618,-0.022c0.272,-0.047 0.538,-0.133 0.74,-0.186c-5.91,-5.911 -11.798,-11.799 -17.711,-17.712c-1.463,1.465 -2.975,2.986 -4.496,4.5c-3.047,3.031 -7.647,3.03 -10.707,-0.003c-1.378,-1.366 -2.75,-2.739 -4.112,-4.122c-0.155,-0.156 -0.228,-0.394 -0.295,-0.516c-6.045,6.046 -11.925,11.925 -17.888,17.889m-0.187,-39.281c0.291,0.304 0.442,0.47 0.601,0.628c7.822,7.823 15.646,15.646 23.469,23.47c2.309,2.308 5.228,2.303 7.543,-0.011c7.824,-7.822 15.646,-15.646 23.47,-23.469c0.157,-0.158 0.307,-0.324 0.569,-0.601c-0.506,-0.085 -0.897,-0.209 -1.288,-0.209c-17.69,-0.009 -35.379,-0.009 -53.068,-0.001c-0.379,0 -0.759,0.11 -1.296,0.193m27.839,41.91l-26.512,0c-2.949,0 -5.074,-2.123 -5.074,-5.068c-0.001,-11.501 -0.001,-23.002 0,-34.504c0,-2.86 2.148,-5.011 5.006,-5.011c17.738,-0.001 35.475,-0.001 53.211,0c2.777,0 4.951,2.17 4.951,4.944c0.002,11.564 0.002,23.126 0,34.69c0,2.777 -2.17,4.948 -4.946,4.948c-8.879,0.002 -17.758,0.001 -26.636,0.001" style="fill-rule:nonzero;"/></svg>