<?xml version="1.0" encoding="UTF-8" standalone="no"?><!DOCTYPE svg PUBLIC "-//W3C//DTD SVG 1.1//EN" "http://www.w3.org/Graphics/SVG/1.1/DTD/svg11.dtd"><svg width="100%" height="100%" viewBox="0 0 17 37" version="1.1" xmlns="http://www.w3.org/2000/svg" xmlns:xlink="http://www.w3.org/1999/xlink" xml:space="preserve" xmlns:serif="http://www.serif.com/" style="fill-rule:evenodd;clip-rule:evenodd;stroke-linejoin:round;stroke-miterlimit:1.41421;"><path d="M0.038,11.864c0.154,-0.01 0.305,-0.029 0.455,-0.03c0.96,-0.002 1.919,-0.013 2.878,0.006c0.33,0.006 0.415,-0.106 0.416,-0.428c0.007,-1.704 0,-3.41 0.072,-5.113c0.068,-1.597 0.513,-3.076 1.661,-4.269c0.995,-1.036 2.249,-1.56 3.629,-1.793c0.778,-0.131 1.573,-0.206 2.361,-0.221c1.657,-0.033 3.316,-0.004 4.973,-0.016c0.294,-0.003 0.391,0.09 0.391,0.382c-0.003,1.906 0.002,3.813 0.018,5.719c0.002,0.265 -0.08,0.346 -0.344,0.344c-1.065,-0.013 -2.131,-0.009 -3.197,-0.001c-0.306,0.002 -0.614,0.024 -0.919,0.054c-0.763,0.074 -1.06,0.357 -1.092,1.127c-0.047,1.099 -0.057,2.2 -0.074,3.301c-0.014,0.907 -0.007,0.907 0.913,0.907c1.409,0 2.818,-0.001 4.227,0.001c0.15,0.001 0.299,0.021 0.48,0.034c-0.057,0.656 -0.109,1.278 -0.166,1.899c-0.111,1.225 -0.228,2.45 -0.334,3.676c-0.048,0.548 -0.059,0.577 -0.61,0.584c-1.373,0.018 -2.747,0.038 -4.12,0.037c-0.312,-0.001 -0.4,0.092 -0.4,0.404c0,4.167 -0.011,8.335 -0.023,12.503c-0.005,1.646 -0.027,3.292 -0.019,4.937c0.002,0.331 -0.117,0.386 -0.411,0.385c-2.179,-0.011 -4.357,-0.013 -6.536,0.002c-0.339,0.002 -0.438,-0.085 -0.438,-0.432c-0.008,-5.731 -0.029,-11.461 -0.047,-17.192c-0.001,-0.516 0,-0.516 -0.517,-0.516c-0.971,-0.001 -1.942,-0.004 -2.913,0.001c-0.216,0.001 -0.354,-0.024 -0.352,-0.301c0.01,-1.93 0.005,-3.86 0.007,-5.79c0,-0.057 0.017,-0.115 0.031,-0.201" style="fill-rule:nonzero;"/></svg>