<?xml version="1.0" encoding="UTF-8" standalone="no"?><!DOCTYPE svg PUBLIC "-//W3C//DTD SVG 1.1//EN" "http://www.w3.org/Graphics/SVG/1.1/DTD/svg11.dtd"><svg width="100%" height="100%" viewBox="0 0 54 48" version="1.1" xmlns="http://www.w3.org/2000/svg" xmlns:xlink="http://www.w3.org/1999/xlink" xml:space="preserve" xmlns:serif="http://www.serif.com/" style="fill-rule:evenodd;clip-rule:evenodd;stroke-linejoin:round;stroke-miterlimit:1.41421;"><path d="M15.321,35.967c0.148,-0.181 0.253,-0.309 0.357,-0.436c-0.118,-0.08 -0.261,-0.247 -0.348,-0.221c-0.151,0.046 -0.266,0.21 -0.396,0.324c0.103,0.088 0.205,0.177 0.387,0.333m-1.515,-1.209c-0.174,0.14 -0.308,0.248 -0.443,0.356c0.133,0.093 0.271,0.268 0.396,0.259c0.145,-0.01 0.279,-0.182 0.416,-0.284c-0.103,-0.093 -0.207,-0.186 -0.369,-0.331m-1.544,-0.017c0.09,-0.056 0.179,-0.111 0.269,-0.167c0.103,-0.114 0.206,-0.229 0.31,-0.343c-0.132,-0.095 -0.262,-0.263 -0.394,-0.264c-0.116,-0.001 -0.311,0.171 -0.332,0.292c-0.025,0.147 0.092,0.32 0.147,0.482m7.015,0.955c-0.308,-0.149 -0.458,-0.272 -0.614,-0.28c-0.111,-0.005 -0.228,0.149 -0.342,0.231c0.131,0.113 0.248,0.285 0.397,0.321c0.113,0.027 0.267,-0.121 0.559,-0.272m-2.671,-0.276c-0.008,0.075 -0.015,0.151 -0.023,0.227c0.172,0.295 0.429,0.384 0.731,0.218c0.076,-0.042 0.07,-0.233 0.102,-0.356c-0.27,-0.03 -0.539,-0.06 -0.81,-0.089m14.897,11.913c-0.722,-0.136 -1.509,-0.212 -2.25,-0.44c-1.071,-0.328 -1.624,-1.187 -1.637,-2.297c-0.033,-2.817 -0.076,-5.635 -0.099,-8.453c-0.003,-0.402 -0.144,-0.545 -0.611,-0.464c0,0.697 0.006,1.396 -0.001,2.096c-0.023,2.272 -0.027,4.545 -0.086,6.816c-0.044,1.698 -0.522,2.232 -2.215,2.539c-0.597,0.108 -1.218,0.092 -1.821,0.133c-0.016,-0.101 -0.036,-0.15 -0.023,-0.163c0.694,-0.706 0.706,-1.585 0.7,-2.499c-0.017,-2.518 0.014,-5.037 0.016,-7.555c0.001,-0.41 -0.05,-0.82 -0.08,-1.265c-0.554,0.168 -0.596,0.549 -0.609,0.915c-0.036,1.126 -0.06,2.253 -0.073,3.38c-0.017,1.391 0.005,2.784 -0.034,4.175c-0.045,1.626 -0.416,2.148 -1.977,2.645c-0.648,0.207 -1.355,0.228 -2.096,0.246c1.105,-0.975 0.93,-2.241 0.95,-3.439c0.029,-1.616 0.007,-3.233 0.007,-4.899c-0.221,-0.01 -0.407,-0.023 -0.594,-0.027c-1.074,-0.024 -2.147,-0.038 -3.22,-0.071c-1.849,-0.058 -3.249,-0.963 -4.331,-2.391c-0.497,-0.657 -0.918,-1.375 -1.346,-2.082c-0.947,-1.567 -1.801,-3.205 -3.415,-4.27c0.794,-0.106 1.572,-0.073 2.26,0.325c0.636,0.367 1.231,0.816 1.81,1.272c0.954,0.751 1.872,1.549 2.823,2.303c0.7,0.555 1.507,0.806 2.408,0.803c1.004,-0.003 2.008,0.054 3.01,0.054c0.165,0 0.45,-0.133 0.472,-0.246c0.255,-1.299 0.975,-2.324 1.844,-3.272c0.067,-0.072 0.108,-0.17 0.213,-0.34c-0.412,-0.079 -0.765,-0.149 -1.117,-0.213c-2.407,-0.44 -4.729,-1.104 -6.831,-2.413c-1.537,-0.958 -2.805,-2.18 -3.783,-3.699c-0.203,-0.317 -0.427,-0.443 -0.809,-0.442c-2.474,0.009 -4.925,0.235 -7.359,0.672c-0.282,0.051 -0.572,0.059 -0.859,0.088c-0.028,-0.074 -0.057,-0.148 -0.085,-0.222c0.211,-0.112 0.411,-0.294 0.633,-0.325c1.795,-0.25 3.59,-0.502 5.392,-0.688c0.799,-0.083 1.615,-0.014 2.463,-0.014c-0.107,-0.63 -0.489,-0.772 -0.964,-0.775c-1.356,-0.007 -2.712,-0.01 -4.068,-0.011c-1.092,-0.001 -2.185,0.009 -3.276,0.001c-0.271,-0.001 -0.541,-0.051 -0.811,-0.079c-0.009,-0.064 -0.016,-0.129 -0.024,-0.193c0.252,-0.066 0.502,-0.181 0.756,-0.19c1.83,-0.062 3.66,-0.11 5.491,-0.149c0.77,-0.017 1.542,-0.003 2.324,-0.003c-0.214,-1.11 -0.482,-2.15 -0.606,-3.206c-0.451,-3.854 0.199,-7.443 2.729,-10.527c0.261,-0.319 0.332,-0.607 0.254,-1.003c-0.455,-2.301 -0.314,-4.585 0.202,-6.863c0.115,-0.513 0.3,-0.659 0.84,-0.593c2.654,0.324 5.071,1.266 7.341,2.652c0.251,0.154 0.631,0.225 0.921,0.171c4.205,-0.788 8.406,-0.734 12.603,0.038c0.386,0.07 0.672,0 0.984,-0.202c2.02,-1.311 4.215,-2.174 6.603,-2.53c1.211,-0.181 1.225,-0.179 1.49,0.995c0.43,1.898 0.689,3.809 0.445,5.764c-0.034,0.267 0.035,0.615 0.191,0.825c3.196,4.304 3.82,9.086 2.686,14.204c-0.015,0.066 -0.013,0.136 -0.023,0.252c2.887,0.096 5.774,-0.113 8.629,0.257l0.012,0.27c-0.222,0.034 -0.443,0.096 -0.664,0.099c-2.589,0.033 -5.178,0.061 -7.768,0.082c-0.361,0.003 -0.631,0.078 -0.626,0.618c0.286,0.022 0.587,0.066 0.887,0.065c2.334,-0.006 4.643,0.224 6.925,0.719c0.258,0.056 0.636,0.032 0.588,0.566c-0.287,-0.03 -0.562,-0.041 -0.83,-0.088c-2.488,-0.437 -4.989,-0.689 -7.517,-0.665c-0.352,0.004 -0.532,0.133 -0.7,0.424c-1.454,2.509 -3.585,4.245 -6.281,5.238c-1.365,0.503 -2.805,0.802 -4.212,1.191c-0.151,0.042 -0.304,0.072 -0.531,0.125c0.124,0.186 0.21,0.33 0.312,0.463c0.938,1.235 1.397,2.625 1.402,4.178c0.009,2.66 0.052,5.32 0.058,7.979c0.003,1.183 0.03,2.34 1.138,3.158c-1.307,-0.004 -2.541,-0.101 -3.616,-0.837c-0.535,-0.367 -0.851,-0.873 -0.86,-1.551c-0.028,-2.342 -0.063,-4.685 -0.102,-7.027c-0.007,-0.386 -0.027,-0.775 -0.082,-1.157c-0.025,-0.18 -0.146,-0.346 -0.224,-0.519c-0.055,0.009 -0.11,0.018 -0.164,0.027c-0.035,0.178 -0.099,0.356 -0.098,0.535c0.003,3.046 -0.012,6.092 0.048,9.138c0.012,0.575 0.328,1.143 0.548,1.861" style="fill-rule:nonzero;"/></svg>