<?xml version="1.0" encoding="UTF-8" standalone="no"?><!DOCTYPE svg PUBLIC "-//W3C//DTD SVG 1.1//EN" "http://www.w3.org/Graphics/SVG/1.1/DTD/svg11.dtd"><svg width="100%" height="100%" viewBox="0 0 175 56" version="1.1" xmlns="http://www.w3.org/2000/svg" xmlns:xlink="http://www.w3.org/1999/xlink" xml:space="preserve" xmlns:serif="http://www.serif.com/" style="fill-rule:evenodd;clip-rule:evenodd;stroke-miterlimit:10;"><path d="M133.451,18.862l-72.897,0l-4.115,7.127l4.115,7.128l72.897,0l4.115,-7.128l-4.115,-7.127Z" style="fill:#48cb00;fill-rule:nonzero;stroke:#fff;stroke-width:1px;"/><path d="M65.829,24.445l-0.025,0l-0.972,3.377l1.956,0l-0.959,-3.377Zm-0.648,-2.317c0.1,-0.337 0.237,-0.637 0.635,-0.637c0.412,0 0.561,0.312 0.649,0.637l2.404,8.435c0.088,0.3 -0.249,0.623 -0.598,0.623c-0.386,0 -0.585,-0.323 -0.672,-0.623l-0.462,-1.495l-2.654,0l-0.473,1.495c-0.088,0.3 -0.287,0.623 -0.673,0.623c-0.349,0 -0.685,-0.323 -0.598,-0.623l2.442,-8.435Z" style="fill:#fff;fill-rule:nonzero;"/><path d="M77.435,28.744c0.249,0.324 0.436,0.611 0.436,1.034c0,0.934 -0.71,1.408 -1.57,1.408l-2.741,0c-0.474,0 -0.885,-0.087 -1.259,-0.398c-0.337,-0.274 -0.586,-0.723 -0.586,-1.159c0,-0.399 0.225,-0.748 0.66,-0.748c0.362,0 0.586,0.299 0.586,0.635c0,0.375 0.2,0.424 0.549,0.424l2.704,0c0.099,0 0.411,0.038 0.411,-0.15c0,-0.099 -0.175,-0.286 -0.224,-0.361l-4.275,-5.495c-0.261,-0.336 -0.411,-0.586 -0.411,-1.022c0,-0.498 0.237,-0.923 0.66,-1.196c0.349,-0.225 0.636,-0.225 1.035,-0.225l2.642,0c0.473,0 0.872,0.1 1.233,0.411c0.325,0.287 0.586,0.748 0.586,1.184c0,0.399 -0.2,0.724 -0.648,0.724c-0.374,0 -0.598,-0.238 -0.598,-0.587c0,-0.423 -0.212,-0.486 -0.598,-0.486l-2.642,0c-0.137,0 -0.424,-0.037 -0.424,0.175c0,0.112 0.137,0.262 0.187,0.337l4.287,5.495Z" style="fill:#fff;fill-rule:nonzero;"/><path d="M80.693,33.883l0,-11.854c0,-0.405 0.174,-0.633 0.623,-0.633c0.448,0 0.623,0.228 0.623,0.633l0,3.66l3.663,0l0,-3.66c0,-0.405 0.175,-0.633 0.623,-0.633c0.449,0 0.623,0.228 0.623,0.633l0,11.854m-1.246,0l0,-6.928l-3.663,0l0,6.928" style="fill:#fff;fill-rule:nonzero;"/><path d="M89.669,21.492l5.532,0c0.325,0 0.623,0.175 0.623,0.623c0,0.448 -0.298,0.623 -0.623,0.623l-4.286,0l0,1.92l3.065,0c0.324,0 0.623,0.174 0.623,0.623c0,0.448 -0.299,0.623 -0.623,0.623l-3.065,0l0,4.66c0,0.399 -0.175,0.623 -0.623,0.623c-0.449,0 -0.623,-0.224 -0.623,-0.623l0,-9.072Z" style="fill:#fff;fill-rule:nonzero;"/><path d="M102.348,29.941l1.831,0c0.325,0 0.623,0.175 0.623,0.623c0,0.448 -0.298,0.623 -0.623,0.623l-4.909,0c-0.324,0 -0.623,-0.175 -0.623,-0.623c0,-0.448 0.299,-0.623 0.623,-0.623l1.832,0l0,-7.203l-1.832,0c-0.324,0 -0.623,-0.175 -0.623,-0.623c0,-0.448 0.299,-0.623 0.623,-0.623l4.909,0c0.325,0 0.623,0.175 0.623,0.623c0,0.448 -0.298,0.623 -0.623,0.623l-1.831,0l0,7.203Z" style="fill:#fff;fill-rule:nonzero;"/><path d="M113.156,29.941c0.324,0 0.623,0.175 0.623,0.623c0,0.448 -0.299,0.623 -0.623,0.623l-5.532,0l0,-9.695l5.532,0c0.324,0 0.623,0.175 0.623,0.623c0,0.448 -0.299,0.623 -0.623,0.623l-4.286,0l0,2.979l1.831,0c0.324,0 0.624,0.174 0.624,0.623c0,0.448 -0.3,0.623 -0.624,0.623l-1.831,0l0,2.978l4.286,0Z" style="fill:#fff;fill-rule:nonzero;"/><path d="M122.132,29.941c0.324,0 0.623,0.175 0.623,0.623c0,0.448 -0.299,0.623 -0.623,0.623l-5.532,0l0,-9.072c0,-0.399 0.174,-0.623 0.623,-0.623c0.448,0 0.623,0.224 0.623,0.623l0,7.826l4.286,0Z" style="fill:#fff;fill-rule:nonzero;"/><path d="M128.044,29.941l0.237,0c0.523,0 0.648,-0.063 0.872,-0.524l1.097,-2.218c0.137,-0.286 0.236,-0.498 0.236,-0.809c0,-0.424 -0.137,-0.661 -0.311,-1.022l-1.035,-2.106c-0.261,-0.536 -0.373,-0.524 -0.946,-0.524l-0.15,0l0,7.203Zm-1.246,-7.203l-0.461,0c-0.412,0 -0.76,-0.149 -0.76,-0.623c0,-0.448 0.336,-0.623 0.722,-0.623l2.081,0c0.972,0 1.458,0.399 1.882,1.246l1.097,2.194c0.249,0.51 0.373,0.871 0.373,1.445c0,0.499 -0.137,0.922 -0.361,1.37l-1.134,2.269c-0.436,0.885 -0.997,1.171 -1.969,1.171l-2.068,0c-0.324,0 -0.623,-0.175 -0.623,-0.623c0,-0.448 0.299,-0.623 0.623,-0.623l0.598,0l0,-7.203Z" style="fill:#fff;fill-rule:nonzero;"/><path d="M170.794,33.292l0,0.179l-93.425,0l-4.115,7.128l4.115,7.127l93.425,0l0,-0.179l4.115,-7.128l-4.115,-7.127Z" style="fill:#71c8e2;fill-rule:nonzero;"/><path d="M81.887,33.619l0.078,9.673l0.336,0.609l0.536,0l0.336,-0.609l0,-3.995c0,-0.394 0.175,-0.749 0.623,-0.749c0.449,0 0.624,0.355 0.624,0.749l0,3.995l0.336,0.609l0.536,0l0.336,-0.609l-0.026,-9.673m1.272,0l0,9.673c0,0.343 -0.012,0.369 -0.174,0.648l-0.436,0.773c-0.212,0.38 -0.324,0.457 -0.76,0.457l-0.935,0c-0.424,0 -0.673,-0.089 -0.76,-0.546l-0.025,0c-0.087,0.457 -0.336,0.546 -0.76,0.546l-0.935,0c-0.436,0 -0.548,-0.077 -0.76,-0.457l-0.436,-0.773c-0.162,-0.279 -0.174,-0.305 -0.174,-0.648l-0.073,-9.673" style="fill:#fff;fill-rule:nonzero;"/><path d="M91.041,41.386l3.465,0l0,-0.723c0,-0.225 0.012,-0.411 -0.15,-0.561l-0.461,-0.398c-0.15,-0.137 -0.386,-0.15 -0.574,-0.15l-1.009,0c-0.224,0 -0.411,0 -0.61,0.137l-0.411,0.299c-0.15,0.112 -0.25,0.2 -0.25,0.549l0,0.847Zm0.997,3.688c-0.498,0 -0.698,0 -1.072,-0.323l-0.51,-0.449c-0.474,-0.424 -0.611,-0.698 -0.611,-1.346l0,-2.306c0,-0.635 0.087,-1.009 0.586,-1.432l0.423,-0.362c0.561,-0.486 0.835,-0.499 1.321,-0.499l1.097,0c0.585,0 0.86,0.063 1.321,0.437l0.486,0.386c0.548,0.436 0.623,0.897 0.623,1.558l0,0.96c0,0.684 -0.112,0.884 -0.823,0.884l-3.838,0l0,0.399c0,0.112 0.087,0.262 0.175,0.349l0.299,0.324c0.162,0.174 0.399,0.224 0.797,0.224l2.567,0c0.399,0 0.823,0.087 0.823,0.598c0,0.523 -0.474,0.598 -0.823,0.598l-2.841,0Z" style="fill:#fff;fill-rule:nonzero;"/><path d="M100.018,42.195c0,0.387 0.05,0.536 0.362,0.798l0.685,0.585c0.149,0.125 0.336,0.299 0.461,0.299l0.909,0c0.175,0 0.287,-0.037 0.374,-0.112l0.524,-0.436c0.137,-0.112 0.15,-0.398 0.15,-0.636l0,-2.118c0,-0.237 -0.063,-0.424 -0.163,-0.499l-0.548,-0.423c-0.075,-0.063 -0.162,-0.1 -0.286,-0.1l-0.835,0c-0.162,0 -0.362,0.087 -0.499,0.212l-0.772,0.673c-0.2,0.162 -0.362,0.349 -0.362,0.71l0,1.047Zm0,-2.966l0.212,-0.212c0.399,-0.399 0.636,-0.66 1.184,-0.66l1.321,0c0.311,0 0.585,0.174 0.885,0.424l0.41,0.349c0.474,0.411 0.649,0.748 0.649,1.383l0,2.404c0,0.637 -0.175,0.972 -0.649,1.384l-0.41,0.348c-0.287,0.238 -0.636,0.425 -0.935,0.425l-1.234,0c-0.486,0 -0.822,-0.3 -1.159,-0.611l-0.274,-0.262l0,0.075c0,0.387 -0.124,0.798 -0.598,0.798c-0.511,0 -0.598,-0.425 -0.598,-0.835l0,-7.527c0,-0.411 0.087,-0.822 0.598,-0.822c0.511,0 0.598,0.411 0.598,0.822l0,2.517Z" style="fill:#fff;fill-rule:nonzero;"/><path d="M119.093,43.828l0.237,0c0.523,0 0.648,-0.063 0.872,-0.524l1.096,-2.218c0.138,-0.286 0.237,-0.498 0.237,-0.809c0,-0.424 -0.137,-0.661 -0.311,-1.022l-1.035,-2.106c-0.261,-0.536 -0.373,-0.524 -0.946,-0.524l-0.15,0l0,7.203Zm-1.246,-7.203l-0.461,0c-0.412,0 -0.76,-0.149 -0.76,-0.623c0,-0.448 0.336,-0.623 0.722,-0.623l2.081,0c0.972,0 1.458,0.399 1.882,1.246l1.097,2.194c0.249,0.51 0.373,0.871 0.373,1.445c0,0.499 -0.137,0.922 -0.361,1.37l-1.134,2.269c-0.436,0.885 -0.997,1.171 -1.969,1.171l-2.068,0c-0.324,0 -0.623,-0.175 -0.623,-0.623c0,-0.448 0.299,-0.623 0.623,-0.623l0.598,0l0,-7.203Z" style="fill:#fff;fill-rule:nonzero;"/><path d="M126.948,41.386l3.465,0l0,-0.723c0,-0.225 0.012,-0.411 -0.15,-0.561l-0.461,-0.398c-0.15,-0.137 -0.386,-0.15 -0.574,-0.15l-1.009,0c-0.224,0 -0.411,0 -0.61,0.137l-0.411,0.299c-0.15,0.112 -0.25,0.2 -0.25,0.549l0,0.847Zm0.997,3.688c-0.498,0 -0.698,0 -1.072,-0.323l-0.51,-0.449c-0.474,-0.424 -0.611,-0.698 -0.611,-1.346l0,-2.306c0,-0.635 0.087,-1.009 0.586,-1.432l0.423,-0.362c0.561,-0.486 0.835,-0.499 1.321,-0.499l1.097,0c0.585,0 0.86,0.063 1.321,0.437l0.486,0.386c0.548,0.436 0.623,0.897 0.623,1.558l0,0.96c0,0.684 -0.112,0.884 -0.823,0.884l-3.838,0l0,0.399c0,0.112 0.087,0.262 0.175,0.349l0.299,0.324c0.162,0.174 0.399,0.224 0.797,0.224l2.567,0c0.399,0 0.823,0.087 0.823,0.598c0,0.523 -0.474,0.598 -0.823,0.598l-2.841,0Z" style="fill:#fff;fill-rule:nonzero;"/><path d="M136.773,39.553c-0.25,0 -0.673,-0.05 -0.673,0.337c0,0.2 0.149,0.274 0.324,0.349l2.991,1.359c0.772,0.348 1.171,0.834 1.171,1.694c0,1.208 -0.822,1.782 -1.969,1.782l-1.844,0c-0.624,0 -1.047,-0.026 -1.496,-0.374c-0.224,-0.174 -0.548,-0.398 -0.548,-0.698c0,-0.337 0.287,-0.598 0.623,-0.598c0.187,0 0.324,0.063 0.461,0.212c0.212,0.236 0.586,0.261 0.96,0.261l1.62,0c0.424,0 0.997,0.038 0.997,-0.66c0,-0.286 -0.349,-0.474 -0.623,-0.598l-2.817,-1.283c-0.66,-0.3 -1.046,-0.686 -1.046,-1.458c0,-0.948 0.747,-1.521 1.644,-1.521l2.044,0c0.66,0 0.935,0.037 1.383,0.412c0.224,0.186 0.474,0.336 0.474,0.672c0,0.336 -0.287,0.598 -0.611,0.598c-0.224,0 -0.361,-0.087 -0.511,-0.249c-0.199,-0.212 -0.411,-0.237 -0.735,-0.237l-1.819,0Z" style="fill:#fff;fill-rule:nonzero;"/><path d="M145.45,35.94c0,-0.424 0.237,-0.561 0.561,-0.561l0.685,0c0.324,0 0.561,0.137 0.561,0.561l0,0.573c0,0.423 -0.237,0.56 -0.561,0.56l-0.685,0c-0.324,0 -0.561,-0.137 -0.561,-0.56l0,-0.573Zm1.807,7.938l0.897,0c0.399,0 0.822,0.087 0.822,0.597c0,0.524 -0.473,0.599 -0.822,0.599l-3.04,0c-0.349,0 -0.823,-0.075 -0.823,-0.599c0,-0.51 0.424,-0.597 0.823,-0.597l0.947,0l0,-4.325l-0.947,0c-0.349,0 -0.823,-0.074 -0.823,-0.597c0,-0.512 0.424,-0.599 0.823,-0.599l1.258,0c0.686,0 0.885,0.125 0.885,0.835l0,4.686Z" style="fill:#fff;fill-rule:nonzero;"/><path d="M153.879,42.233c0,0.25 0.013,0.51 0.15,0.623l0.498,0.399c0.087,0.075 0.2,0.111 0.349,0.111l0.872,0c0.15,0 0.324,-0.123 0.548,-0.311l0.923,-0.76c0.087,-0.074 0.125,-0.237 0.125,-0.399l0,-0.871c0,-0.163 -0.038,-0.325 -0.125,-0.399l-0.923,-0.761c-0.224,-0.187 -0.398,-0.312 -0.548,-0.312l-0.872,0c-0.149,0 -0.262,0.038 -0.349,0.113l-0.498,0.399c-0.137,0.111 -0.15,0.373 -0.15,0.623l0,1.545Zm-1.196,-1.645c0,-0.561 0.162,-1.059 0.411,-1.259l0.872,-0.685c0.249,-0.2 0.437,-0.287 0.748,-0.287l1.159,0c0.324,0 0.71,0.237 1.171,0.599l0.3,0.236l0,-0.137c0,-0.373 0.199,-0.698 0.61,-0.698c0.523,0 0.586,0.436 0.586,0.835l0,5.844c0,1.085 -0.087,1.309 -0.586,1.732l-0.399,0.337c-0.523,0.437 -0.822,0.511 -1.495,0.511l-1.982,0c-0.348,0 -0.822,-0.074 -0.822,-0.598c0,-0.511 0.424,-0.599 0.822,-0.599l2.194,0c0.249,0 0.411,-0.111 0.598,-0.274l0.299,-0.273c0.099,-0.1 0.175,-0.274 0.175,-0.499l0,-1.644l-0.25,0.248c-0.274,0.274 -0.648,0.586 -0.984,0.586l-1.409,0c-0.249,0 -0.535,-0.037 -0.897,-0.362l-0.747,-0.672c-0.349,-0.324 -0.374,-0.635 -0.374,-1.121l0,-1.82Z" style="fill:#fff;fill-rule:nonzero;"/><path d="M162.855,40.775l0,3.476c0,0.412 -0.087,0.823 -0.598,0.823c-0.511,0 -0.598,-0.411 -0.598,-0.823l0,-5.009c0,-0.435 0.05,-0.885 0.598,-0.885c0.536,0 0.598,0.45 0.598,0.873l0,0.162l0.972,-0.636c0.312,-0.199 0.648,-0.399 1.034,-0.399l0.885,0c0.461,0 0.748,0.125 1.109,0.436c0.536,0.462 0.511,0.972 0.536,1.621l0.125,3.763c0.012,0.423 -0.05,0.897 -0.586,0.897c-0.486,0 -0.586,-0.411 -0.598,-0.81l-0.125,-3.689c-0.024,-0.734 -0.087,-1.022 -0.81,-1.022l-0.399,0c-0.124,0 -0.249,0.038 -0.373,0.113l-1.77,1.109Z" style="fill:#fff;fill-rule:nonzero;"/><path d="M40.123,20.223l-8.775,-15.198l-17.549,0l-8.774,15.198l17.563,30.396l8.76,-15.198l-8.774,-15.198l17.549,0Z" style="fill:#5fb12f;fill-rule:nonzero;stroke:#fff;stroke-width:1px;"/><path d="M48.898,5.025l8.775,15.198l-17.535,30.396l-17.549,0l17.549,-30.396l-8.789,-15.198l17.549,0Z" style="fill:#71c8e2;fill-rule:nonzero;stroke:#fff;stroke-width:1px;"/></svg>