<?xml version="1.0" encoding="UTF-8" standalone="no"?>
<!DOCTYPE svg PUBLIC "-//W3C//DTD SVG 1.1//EN" "http://www.w3.org/Graphics/SVG/1.1/DTD/svg11.dtd">
<svg width="100%" height="100%" viewBox="0 0 1291 245" version="1.1" xmlns="http://www.w3.org/2000/svg" xmlns:xlink="http://www.w3.org/1999/xlink" xml:space="preserve" xmlns:serif="http://www.serif.com/" style="fill-rule:evenodd;clip-rule:evenodd;stroke-miterlimit:10;">
    <g transform="matrix(1,0,0,1,5.02494,-560.43)">
        <g transform="matrix(0.666667,0,0,0.666667,0,565.455)">
            <path d="M0,351.817L15.719,330.624L31.438,334.862L42.667,330.624L56.14,316.494L78.597,285.41L103.298,285.41L121.263,295.3L143.719,276.932L193.123,323.559L204.351,316.494L217.825,326.384L226.807,323.559L235.79,326.384L238.035,333.449L258.246,337.688L271.719,348.992L282.947,339.101L294.175,312.255L323.369,262.803L332.351,243.022L357.053,213.351L366.035,226.067L372.772,203.461L397.474,203.461L401.965,213.351L413.193,216.176L424.421,234.545L424.421,251.5L433.403,254.326L444.631,272.694L462.597,272.694L476.07,267.042L485.053,283.997L494.035,286.823L503.018,295.3L514.246,291.061L518.737,289.649L534.456,296.713L534.456,303.778L541.193,305.191L554.667,295.3L563.649,299.539L581.614,288.236L599.579,271.281L608.562,252.913L624.281,240.196L640,243.022L648.982,252.913L653.474,271.281L678.175,302.365L682.667,326.384L687.158,324.971L689.403,310.842L700.631,305.191L709.614,308.016L709.614,312.255L716.351,315.082L725.333,308.016L732.07,292.474L736.562,286.823L752.281,271.281L761.263,189.331L779.228,161.073L783.719,152.595L792.702,146.944L799.438,134.227L806.175,115.859L812.912,107.381L812.912,100.317L815.158,96.079L826.386,96.079L835.369,87.601L842.105,81.949L851.088,81.949L864.562,91.839L871.298,128.576L889.263,163.899L902.737,148.356L902.737,142.705L911.719,135.64L925.193,142.705L940.912,159.66L947.649,155.421L954.386,149.769L972.351,159.66L979.088,151.182L988.07,159.66L999.298,161.073L1012.77,186.505L1019.51,182.266L1024,180.853L1039.72,196.396L1046.46,194.983L1048.7,186.505L1064.42,169.55L1066.67,162.486L1075.65,166.724L1080.14,178.028L1086.88,186.505L1107.09,183.679L1125.05,173.789L1140.77,172.377L1147.51,144.118L1156.49,137.053L1165.47,97.491L1199.16,60.755L1210.39,60.755L1219.37,53.691L1239.58,43.8L1246.32,36.736L1266.53,26.845L1275.51,16.955L1300.21,0L1311.44,7.064L1320.42,8.477L1331.65,9.89L1336.14,16.955L1347.37,21.193L1356.35,33.91L1363.09,38.148L1383.3,76.297L1394.53,76.297L1396.77,73.471L1401.26,67.82L1412.49,66.407L1416.98,62.169L1423.72,62.169L1468.63,139.879L1533.75,223.241L1558.46,224.654L1583.16,204.874L1592.14,203.461L1598.88,186.505L1607.86,186.505L1614.6,203.461L1621.33,211.938L1625.82,210.525L1625.82,202.047L1630.32,199.221L1639.3,211.938L1646.04,210.525L1648.28,199.221L1679.72,204.874L1679.72,199.221L1688.7,192.157L1693.19,182.266L1702.18,193.57L1720.14,176.615L1724.63,162.486L1749.33,159.66L1760.56,154.008L1771.79,159.66L1787.51,158.247L1794.25,146.944L1805.47,139.879L1821.19,149.769L1836.91,165.311L1845.89,179.441L1857.12,193.57L1877.33,200.634L1886.32,213.351C1886.32,213.351 1890.81,204.874 1890.81,203.461C1890.81,202.047 1895.3,189.331 1895.3,189.331L1899.79,176.615L1908.77,169.55L1920,185.092" style="fill:none;stroke:black;stroke-width:1.5px;"/>
        </g>
    </g>
</svg>
