<?xml version="1.0" encoding="UTF-8" standalone="no"?><!DOCTYPE svg PUBLIC "-//W3C//DTD SVG 1.1//EN" "http://www.w3.org/Graphics/SVG/1.1/DTD/svg11.dtd"><svg width="100%" height="100%" viewBox="0 0 32 54" version="1.1" xmlns="http://www.w3.org/2000/svg" xmlns:xlink="http://www.w3.org/1999/xlink" xml:space="preserve" xmlns:serif="http://www.serif.com/" style="fill-rule:evenodd;clip-rule:evenodd;stroke-linejoin:round;stroke-miterlimit:1.41421;"><path d="M15.827,43.164c-1.783,0.003 -3.057,1.286 -3.053,3.077c0.004,1.696 1.324,3.001 3.038,3.001c1.765,0 3.042,-1.276 3.038,-3.036c-0.003,-1.776 -1.264,-3.045 -3.023,-3.042m11.161,-35.64l-22.347,0l0,32.083l22.347,0l0,-32.083Zm-26.976,17.311c0,-7.3 0,-14.6 0,-21.9c0,-1.31 1.353,-2.791 2.672,-2.835c1.954,-0.069 3.91,-0.1 5.866,-0.1c6.705,-0.002 13.411,0.016 20.117,0.025c1.39,0.002 2.915,1.49 2.952,2.883c0.002,0.052 0.001,0.105 0.001,0.157c-0.003,14.041 -0.006,28.082 -0.009,42.123c0,0.262 -0.019,0.525 -0.005,0.786c0.129,2.515 -1.139,4.198 -3.225,5.378c-1.889,1.068 -3.971,1.515 -6.095,1.764c-4.23,0.495 -8.467,0.494 -12.698,0.009c-2.367,-0.272 -4.699,-0.719 -6.763,-2.022c-1.384,-0.874 -2.422,-2.047 -2.69,-3.697c-0.164,-1.008 -0.127,-2.054 -0.128,-3.082c-0.01,-6.497 -0.006,-12.993 -0.006,-19.489l0.011,0Z" style="fill-rule:nonzero;"/></svg>