<?xml version="1.0" encoding="UTF-8" standalone="no"?><!DOCTYPE svg PUBLIC "-//W3C//DTD SVG 1.1//EN" "http://www.w3.org/Graphics/SVG/1.1/DTD/svg11.dtd"><svg width="100%" height="100%" viewBox="0 0 46 38" version="1.1" xmlns="http://www.w3.org/2000/svg" xmlns:xlink="http://www.w3.org/1999/xlink" xml:space="preserve" xmlns:serif="http://www.serif.com/" style="fill-rule:evenodd;clip-rule:evenodd;stroke-linejoin:round;stroke-miterlimit:1.41421;"><path d="M13.535,29.149c-4.241,-0.489 -7.153,-2.537 -8.686,-6.535c1.366,0.01 2.649,0.155 3.91,-0.214c-2.624,-0.78 -4.67,-2.267 -6.008,-4.674c-0.791,-1.422 -1.224,-2.926 -1.159,-4.665c1.264,0.672 2.563,1.03 3.966,1.1c-2.513,-1.987 -3.861,-4.538 -3.89,-7.742c-0.014,-1.656 0.519,-3.673 1.218,-4.632c0.854,0.834 1.696,1.674 2.555,2.495c4.075,3.893 8.941,6.15 14.492,6.975c0.692,0.102 1.392,0.151 2.087,0.223c0.042,0.003 0.087,-0.013 0.186,-0.028c-0.013,-0.156 -0.025,-0.31 -0.042,-0.464c-0.286,-2.575 0.069,-5.005 1.689,-7.119c2.145,-2.801 4.966,-4.121 8.515,-3.829c2.053,0.169 3.826,0.966 5.333,2.343c0.464,0.424 0.926,0.568 1.498,0.354c1.335,-0.5 2.668,-1.007 3.999,-1.519c0.33,-0.127 0.649,-0.284 1.083,-0.477c-0.742,2.097 -2.038,3.632 -3.662,4.958c1.653,-0.095 3.18,-0.69 4.729,-1.185l0.067,0.092c-0.195,0.273 -0.379,0.555 -0.588,0.816c-1.039,1.294 -2.176,2.492 -3.5,3.498c-0.264,0.201 -0.363,0.419 -0.389,0.742c-0.139,1.795 -0.145,3.618 -0.485,5.376c-1.553,8.043 -5.673,14.396 -12.767,18.64c-3.802,2.275 -7.963,3.426 -12.418,3.428c-2.039,0.001 -4.076,0.04 -6.099,-0.346c-3.196,-0.608 -6.156,-1.806 -8.95,-3.448c-0.076,-0.044 -0.143,-0.103 -0.219,-0.218c2.385,-0.032 4.763,-0.028 7.081,-0.713c2.309,-0.682 4.42,-1.726 6.454,-3.232" style="fill-rule:nonzero;"/></svg>