<?xml version="1.0" encoding="UTF-8" standalone="no"?><!DOCTYPE svg PUBLIC "-//W3C//DTD SVG 1.1//EN" "http://www.w3.org/Graphics/SVG/1.1/DTD/svg11.dtd"><svg width="100%" height="100%" viewBox="0 0 582 318" version="1.1" xmlns="http://www.w3.org/2000/svg" xmlns:xlink="http://www.w3.org/1999/xlink" xml:space="preserve" xmlns:serif="http://www.serif.com/" style="fill-rule:evenodd;clip-rule:evenodd;stroke-linecap:round;stroke-linejoin:round;stroke-miterlimit:1.5;"><path d="M581.211,15.866c0,-8.757 -7.11,-15.866 -15.867,-15.866l-549.478,0c-8.757,0 -15.866,7.109 -15.866,15.866l0,285.595c0,8.757 7.109,15.867 15.866,15.867l549.478,0c8.757,0 15.867,-7.11 15.867,-15.867l0,-285.595Z" style="fill:#ebebeb;"/><path d="M105.219,22.965c0,-1.614 -1.309,-2.923 -2.923,-2.923l-74.321,0c-1.613,0 -2.923,1.309 -2.923,2.923l0,52.609c0,1.613 1.31,2.923 2.923,2.923l74.321,0c1.614,0 2.923,-1.31 2.923,-2.923l0,-52.609Z" style="fill:#bcbcbc;"/><path d="M557.829,22.965c0,-1.614 -1.31,-2.923 -2.923,-2.923l-423.382,0c-1.613,0 -2.923,1.309 -2.923,2.923l0,52.609c0,1.613 1.31,2.923 2.923,2.923l423.382,0c1.613,0 2.923,-1.31 2.923,-2.923l0,-52.609Z" style="fill:#bcbcbc;"/><path d="M557.829,109.896c0,-5.347 -4.341,-9.687 -9.687,-9.687l-513.403,0c-5.346,0 -9.687,4.34 -9.687,9.687l0,174.363c0,5.346 4.341,9.687 9.687,9.687l513.403,0c5.346,0 9.687,-4.341 9.687,-9.687l0,-174.363Z" style="fill:#bcbcbc;"/><path d="M128.601,131.232c0,-1.913 -1.553,-3.466 -3.465,-3.466l-73.236,0c-1.913,0 -3.466,1.553 -3.466,3.466l0,62.38c0,1.912 1.553,3.465 3.466,3.465l73.236,0c1.912,0 3.465,-1.553 3.465,-3.465l0,-62.38Z" style="fill:#837a7a;"/><path d="M128.601,253.486c0,-1.175 -0.954,-2.129 -2.129,-2.129l-75.908,0c-1.176,0 -2.13,0.954 -2.13,2.129l0,38.33c0,1.176 0.954,2.13 2.13,2.13l75.908,0c1.175,0 2.129,-0.954 2.129,-2.13l0,-38.33Z" style="fill:#837a7a;"/><path d="M161.169,131.524l357.411,0" style="fill:none;stroke:#837a7a;stroke-width:8.03px;"/><path d="M161.169,162.422l357.411,0" style="fill:none;stroke:#837a7a;stroke-width:8.03px;"/><path d="M161.169,193.319l357.411,0" style="fill:none;stroke:#837a7a;stroke-width:8.03px;"/><path d="M157.829,251.357l357.411,0" style="fill:none;stroke:#837a7a;stroke-width:8.03px;"/><path d="M157.829,282.255l357.411,0" style="fill:none;stroke:#837a7a;stroke-width:8.03px;"/><path d="M36.443,224.217l505.653,0" style="fill:none;stroke:#837a7a;stroke-width:3.77px;"/></svg>